<svg width="761" height="720" viewBox="0 0 761 720" fill="none" xmlns="http://www.w3.org/2000/svg">
<path fill-rule="evenodd" clip-rule="evenodd" d="M229.832 0C247.977 26.3681 260.631 61.0472 260 105.5C258.589 204.945 353.391 177.298 438.889 152.365C474.617 141.945 508.72 132 533.5 132C617 132 654 172.5 739.5 285C757.167 310.167 786.535 388.228 713 434C686.376 450.572 662.115 451.599 637.648 452.635C617.085 453.506 596.376 454.383 574 464.5C572.122 465.349 570.133 466.231 568.059 467.151C535.522 481.579 482.166 505.24 513 554.5C539.799 597.313 499.219 671.079 462.656 720H0V0L229.832 0Z" fill="#08203E"/>
</svg>
